{
  "accessors": [
    {
      "bufferView": 2,
      "componentType": 5126,
      "count": 65532,
      "max": [
        0.695857048034668,
        0.47791680693626404,
        0.266232967376709
      ],
      "min": [
        -0.26476413011550903,
        -0.26097074151039124,
        -0.6765828132629395
      ],
      "type": "VEC3"
    },
    {
      "bufferView": 2,
      "byteOffset": 786384,
      "componentType": 5126,
      "count": 65532,
      "type": "VEC3"
    },
    {
      "bufferView": 1,
      "componentType": 5126,
      "count": 65532,
      "type": "VEC2"
    },
    {
      "bufferView": 0,
      "componentType": 5125,
      "count": 339666,
      "type": "SCALAR"
    },
    {
      "bufferView": 2,
      "byteOffset": 1572768,
      "componentType": 5126,
      "count": 65532,
      "max": [
        0.43791675567626953,
        0.39653733372688293,
        0.5751945972442627
      ],
      "min": [
        -0.41319435834884644,
        -0.41182079911231995,
        -0.6074213981628418
      ],
      "type": "VEC3"
    },
    {
      "bufferView": 2,
      "byteOffset": 2359152,
      "componentType": 5126,
      "count": 65532,
      "type": "VEC3"
    },
    {
      "bufferView": 1,
      "byteOffset": 524256,
      "componentType": 5126,
      "count": 65532,
      "type": "VEC2"
    },
    {
      "bufferView": 0,
      "byteOffset": 1358664,
      "componentType": 5125,
      "count": 336669,
      "type": "SCALAR"
    },
    {
      "bufferView": 2,
      "byteOffset": 3145536,
      "componentType": 5126,
      "count": 65532,
      "max": [
        0.7803072929382324,
        0.49881884455680847,
        0.6693680286407471
      ],
      "min": [
        -0.6445436477661133,
        -0.45766130089759827,
        -0.4759533405303955
      ],
      "type": "VEC3"
    },
    {
      "bufferView": 2,
      "byteOffset": 3931920,
      "componentType": 5126,
      "count": 65532,
      "type": "VEC3"
    },
    {
      "bufferView": 1,
      "byteOffset": 1048512,
      "componentType": 5126,
      "count": 65532,
      "type": "VEC2"
    },
    {
      "bufferView": 0,
      "byteOffset": 2705340,
      "componentType": 5125,
      "count": 324999,
      "type": "SCALAR"
    },
    {
      "bufferView": 2,
      "byteOffset": 4718304,
      "componentType": 5126,
      "count": 65532,
      "max": [
        0.7809416055679321,
        0.3414860665798187,
        0.7525385618209839
      ],
      "min": [
        -0.5831432342529297,
        -0.5364290475845337,
        -0.7048821449279785
      ],
      "type": "VEC3"
    },
    {
      "bufferView": 2,
      "byteOffset": 5504688,
      "componentType": 5126,
      "count": 65532,
      "type": "VEC3"
    },
    {
      "bufferView": 1,
      "byteOffset": 1572768,
      "componentType": 5126,
      "count": 65532,
      "type": "VEC2"
    },
    {
      "bufferView": 0,
      "byteOffset": 4005336,
      "componentType": 5125,
      "count": 327357,
      "type": "SCALAR"
    },
    {
      "bufferView": 2,
      "byteOffset": 6291072,
      "componentType": 5126,
      "count": 65532,
      "max": [
        0.3259095549583435,
        0.08706139028072357,
        0.5570042133331299
      ],
      "min": [
        -0.7138721942901611,
        -0.4513544738292694,
        -0.4675326347351074
      ],
      "type": "VEC3"
    },
    {
      "bufferView": 2,
      "byteOffset": 7077456,
      "componentType": 5126,
      "count": 65532,
      "type": "VEC3"
    },
    {
      "bufferView": 1,
      "byteOffset": 2097024,
      "componentType": 5126,
      "count": 65532,
      "type": "VEC2"
    },
    {
      "bufferView": 0,
      "byteOffset": 5314764,
      "componentType": 5125,
      "count": 310137,
      "type": "SCALAR"
    },
    {
      "bufferView": 2,
      "byteOffset": 7863840,
      "componentType": 5126,
      "count": 26162,
      "max": [
        0.43012553453445435,
        0.40523961186408997,
        0.330610990524292
      ],
      "min": [
        -0.40024125576019287,
        -0.33127543330192566,
        -0.7090752124786377
      ],
      "type": "VEC3"
    },
    {
      "bufferView": 2,
      "byteOffset": 8177784,
      "componentType": 5126,
      "count": 26162,
      "type": "VEC3"
    },
    {
      "bufferView": 1,
      "byteOffset": 2621280,
      "componentType": 5126,
      "count": 26162,
      "type": "VEC2"
    },
    {
      "bufferView": 0,
      "byteOffset": 6555312,
      "componentType": 5125,
      "count": 108981,
      "type": "SCALAR"
    },
    {
      "bufferView": 2,
      "byteOffset": 8491728,
      "componentType": 5126,
      "count": 65532,
      "max": [
        0.6141437292098999,
        0.4529974162578583,
        0.28031301498413086
      ],
      "min": [
        -0.1569538563489914,
        -0.20510216057300568,
        -0.529076337814331
      ],
      "type": "VEC3"
    },
    {
      "bufferView": 2,
      "byteOffset": 9278112,
      "componentType": 5126,
      "count": 65532,
      "type": "VEC3"
    },
    {
      "bufferView": 1,
      "byteOffset": 2830576,
      "componentType": 5126,
      "count": 65532,
      "type": "VEC2"
    },
    {
      "bufferView": 0,
      "byteOffset": 6991236,
      "componentType": 5125,
      "count": 340749,
      "type": "SCALAR"
    },
    {
      "bufferView": 2,
      "byteOffset": 10064496,
      "componentType": 5126,
      "count": 65532,
      "max": [
        0.3271365165710449,
        0.4012483060359955,
        0.43912744522094727
      ],
      "min": [
        -0.3920177221298218,
        -0.3869676887989044,
        -0.6989257335662842
      ],
      "type": "VEC3"
    },
    {
      "bufferView": 2,
      "byteOffset": 10850880,
      "componentType": 5126,
      "count": 65532,
      "type": "VEC3"
    },
    {
      "bufferView": 1,
      "byteOffset": 3354832,
      "componentType": 5126,
      "count": 65532,
      "type": "VEC2"
    },
    {
      "bufferView": 0,
      "byteOffset": 8354232,
      "componentType": 5125,
      "count": 342918,
      "type": "SCALAR"
    },
    {
      "bufferView": 2,
      "byteOffset": 11637264,
      "componentType": 5126,
      "count": 65532,
      "max": [
        0.7840380668640137,
        0.4853915870189667,
        0.6697885990142822
      ],
      "min": [
        -0.6233466863632202,
        -0.48561009764671326,
        -0.47371506690979004
      ],
      "type": "VEC3"
    },
    {
      "bufferView": 2,
      "byteOffset": 12423648,
      "componentType": 5126,
      "count": 65532,
      "type": "VEC3"
    },
    {
      "bufferView": 1,
      "byteOffset": 3879088,
      "componentType": 5126,
      "count": 65532,
      "type": "VEC2"
    },
    {
      "bufferView": 0,
      "byteOffset": 9725904,
      "componentType": 5125,
      "count": 320085,
      "type": "SCALAR"
    },
    {
      "bufferView": 2,
      "byteOffset": 13210032,
      "componentType": 5126,
      "count": 65532,
      "max": [
        0.7873044013977051,
        0.332287460565567,
        0.655829906463623
      ],
      "min": [
        -0.5491456985473633,
        -0.4905771315097809,
        -0.7029752731323242
      ],
      "type": "VEC3"
    },
    {
      "bufferView": 2,
      "byteOffset": 13996416,
      "componentType": 5126,
      "count": 65532,
      "type": "VEC3"
    },
    {
      "bufferView": 1,
      "byteOffset": 4403344,
      "componentType": 5126,
      "count": 65532,
      "type": "VEC2"
    },
    {
      "bufferView": 0,
      "byteOffset": 11006244,
      "componentType": 5125,
      "count": 326307,
      "type": "SCALAR"
    },
    {
      "bufferView": 2,
      "byteOffset": 14782800,
      "componentType": 5126,
      "count": 65534,
      "max": [
        0.320198655128479,
        0.08643728494644165,
        0.6822860240936279
      ],
      "min": [
        -0.7226818799972534,
        -0.4707123935222626,
        -0.4951057434082031
      ],
      "type": "VEC3"
    },
    {
      "bufferView": 2,
      "byteOffset": 15569208,
      "componentType": 5126,
      "count": 65534,
      "type": "VEC3"
    },
    {
      "bufferView": 1,
      "byteOffset": 4927600,
      "componentType": 5126,
      "count": 65534,
      "type": "VEC2"
    },
    {
      "bufferView": 0,
      "byteOffset": 12311472,
      "componentType": 5125,
      "count": 314553,
      "type": "SCALAR"
    },
    {
      "bufferView": 2,
      "byteOffset": 16355616,
      "componentType": 5126,
      "count": 32260,
      "max": [
        0.30688607692718506,
        0.40941593050956726,
        0.4034461975097656
      ],
      "min": [
        -0.3662349581718445,
        -0.286540150642395,
        -0.678898811340332
      ],
      "type": "VEC3"
    },
    {
      "bufferView": 2,
      "byteOffset": 16742736,
      "componentType": 5126,
      "count": 32260,
      "type": "VEC3"
    },
    {
      "bufferView": 1,
      "byteOffset": 5451872,
      "componentType": 5126,
      "count": 32260,
      "type": "VEC2"
    },
    {
      "bufferView": 0,
      "byteOffset": 13569684,
      "componentType": 5125,
      "count": 138837,
      "type": "SCALAR"
    },
    {
      "bufferView": 2,
      "byteOffset": 17129856,
      "componentType": 5126,
      "count": 65532,
      "max": [
        0.7755838632583618,
        0.48108550906181335,
        0.2495427131652832
      ],
      "min": [
        -0.3208125829696655,
        -0.3058113157749176,
        -0.7048821449279785
      ],
      "type": "VEC3"
    },
    {
      "bufferView": 2,
      "byteOffset": 17916240,
      "componentType": 5126,
      "count": 65532,
      "type": "VEC3"
    },
    {
      "bufferView": 1,
      "byteOffset": 5709952,
      "componentType": 5126,
      "count": 65532,
      "type": "VEC2"
    },
    {
      "bufferView": 0,
      "byteOffset": 14125032,
      "componentType": 5125,
      "count": 337746,
      "type": "SCALAR"
    },
    {
      "bufferView": 2,
      "byteOffset": 18702624,
      "componentType": 5126,
      "count": 65532,
      "max": [
        0.5663212537765503,
        0.3988652527332306,
        0.6164777278900146
      ],
      "min": [
        -0.6471515893936157,
        -0.5001223087310791,
        -0.6525647640228271
      ],
      "type": "VEC3"
    },
    {
      "bufferView": 2,
      "byteOffset": 19489008,
      "componentType": 5126,
      "count": 65532,
      "type": "VEC3"
    },
    {
      "bufferView": 1,
      "byteOffset": 6234208,
      "componentType": 5126,
      "count": 65532,
      "type": "VEC2"
    },
    {
      "bufferView": 0,
      "byteOffset": 15476016,
      "componentType": 5125,
      "count": 338838,
      "type": "SCALAR"
    },
    {
      "bufferView": 2,
      "byteOffset": 20275392,
      "componentType": 5126,
      "count": 65534,
      "max": [
        0.7884496450424194,
        0.4671461880207062,
        0.6531772613525391
      ],
      "min": [
        -0.6664106845855713,
        -0.45445600152015686,
        -0.5480878353118896
      ],
      "type": "VEC3"
    },
    {
      "bufferView": 2,
      "byteOffset": 21061800,
      "componentType": 5126,
      "count": 65534,
      "type": "VEC3"
    },
    {
      "bufferView": 1,
      "byteOffset": 6758464,
      "componentType": 5126,
      "count": 65534,
      "type": "VEC2"
    },
    {
      "bufferView": 0,
      "byteOffset": 16831368,
      "componentType": 5125,
      "count": 326394,
      "type": "SCALAR"
    },
    {
      "bufferView": 2,
      "byteOffset": 21848208,
      "componentType": 5126,
      "count": 65532,
      "max": [
        0.4099005460739136,
        0.27591314911842346,
        0.6870882511138916
      ],
      "min": [
        -0.7221519947052002,
        -0.5137367248535156,
        -0.7119171619415283
      ],
      "type": "VEC3"
    },
    {
      "bufferView": 2,
      "byteOffset": 22634592,
      "componentType": 5126,
      "count": 65532,
      "type": "VEC3"
    },
    {
      "bufferView": 1,
      "byteOffset": 7282736,
      "componentType": 5126,
      "count": 65532,
      "type": "VEC2"
    },
    {
      "bufferView": 0,
      "byteOffset": 18136944,
      "componentType": 5125,
      "count": 321690,
      "type": "SCALAR"
    },
    {
      "bufferView": 2,
      "byteOffset": 23420976,
      "componentType": 5126,
      "count": 65532,
      "max": [
        0.5580941438674927,
        0.38002917170524597,
        0.558159589767456
      ],
      "min": [
        -0.722671389579773,
        -0.47910627722740173,
        -0.6889972686767578
      ],
      "type": "VEC3"
    },
    {
      "bufferView": 2,
      "byteOffset": 24207360,
      "componentType": 5126,
      "count": 65532,
      "type": "VEC3"
    },
    {
      "bufferView": 1,
      "byteOffset": 7806992,
      "componentType": 5126,
      "count": 65532,
      "type": "VEC2"
    },
    {
      "bufferView": 0,
      "byteOffset": 19423704,
      "componentType": 5125,
      "count": 305979,
      "type": "SCALAR"
    },
    {
      "bufferView": 2,
      "byteOffset": 24993744,
      "componentType": 5126,
      "count": 14531,
      "max": [
        0.30894482135772705,
        0.35391560196876526,
        0.09558367729187012
      ],
      "min": [
        -0.3193308115005493,
        -0.021492647007107735,
        -0.6223695278167725
      ],
      "type": "VEC3"
    },
    {
      "bufferView": 2,
      "byteOffset": 25168116,
      "componentType": 5126,
      "count": 14531,
      "type": "VEC3"
    },
    {
      "bufferView": 1,
      "byteOffset": 8331248,
      "componentType": 5126,
      "count": 14531,
      "type": "VEC2"
    },
    {
      "bufferView": 0,
      "byteOffset": 20647620,
      "componentType": 5125,
      "count": 67539,
      "type": "SCALAR"
    }
  ],
  "asset": {
    "generator": "fab-model-conversion",
    "version": "2.0"
  },
  "bufferViews": [
    {
      "buffer": 0,
      "byteLength": 20917776,
      "target": 34963
    },
    {
      "buffer": 0,
      "byteLength": 8447496,
      "byteOffset": 20917776,
      "byteStride": 8,
      "target": 34962
    },
    {
      "buffer": 0,
      "byteLength": 25342488,
      "byteOffset": 29365272,
      "byteStride": 12,
      "target": 34962
    }
  ],
  "buffers": [
    {
      "byteLength": 54707760,
      "uri": "scene.bin"
    }
  ],
  "extensionsUsed": [
    "KHR_materials_unlit"
  ],
  "images": [
    {
      "uri": "textures/material1_baseColor.jpeg"
    },
    {
      "uri": "textures/material2_baseColor.jpeg"
    },
    {
      "uri": "textures/material0_baseColor.jpeg"
    }
  ],
  "materials": [
    {
      "doubleSided": true,
      "extensions": {
        "KHR_materials_unlit": {}
      },
      "name": "material1",
      "pbrMetallicRoughness": {
        "baseColorTexture": {
          "index": 0
        },
        "metallicFactor": 0.0
      }
    },
    {
      "doubleSided": true,
      "extensions": {
        "KHR_materials_unlit": {}
      },
      "name": "material2",
      "pbrMetallicRoughness": {
        "baseColorTexture": {
          "index": 1
        },
        "metallicFactor": 0.0
      }
    },
    {
      "doubleSided": true,
      "extensions": {
        "KHR_materials_unlit": {}
      },
      "name": "material0",
      "pbrMetallicRoughness": {
        "baseColorTexture": {
          "index": 2
        },
        "metallicFactor": 0.0
      }
    }
  ],
  "meshes": [
    {
      "name": "Model_material1_0",
      "primitives": [
        {
          "attributes": {
            "NORMAL": 1,
            "POSITION": 0,
            "TEXCOORD_0": 2
          },
          "indices": 3,
          "material": 0,
          "mode": 4
        }
      ]
    },
    {
      "name": "Model_material1_0",
      "primitives": [
        {
          "attributes": {
            "NORMAL": 5,
            "POSITION": 4,
            "TEXCOORD_0": 6
          },
          "indices": 7,
          "material": 0,
          "mode": 4
        }
      ]
    },
    {
      "name": "Model_material1_0",
      "primitives": [
        {
          "attributes": {
            "NORMAL": 9,
            "POSITION": 8,
            "TEXCOORD_0": 10
          },
          "indices": 11,
          "material": 0,
          "mode": 4
        }
      ]
    },
    {
      "name": "Model_material1_0",
      "primitives": [
        {
          "attributes": {
            "NORMAL": 13,
            "POSITION": 12,
            "TEXCOORD_0": 14
          },
          "indices": 15,
          "material": 0,
          "mode": 4
        }
      ]
    },
    {
      "name": "Model_material1_0",
      "primitives": [
        {
          "attributes": {
            "NORMAL": 17,
            "POSITION": 16,
            "TEXCOORD_0": 18
          },
          "indices": 19,
          "material": 0,
          "mode": 4
        }
      ]
    },
    {
      "name": "Model_material1_0",
      "primitives": [
        {
          "attributes": {
            "NORMAL": 21,
            "POSITION": 20,
            "TEXCOORD_0": 22
          },
          "indices": 23,
          "material": 0,
          "mode": 4
        }
      ]
    },
    {
      "name": "Model_material2_0",
      "primitives": [
        {
          "attributes": {
            "NORMAL": 25,
            "POSITION": 24,
            "TEXCOORD_0": 26
          },
          "indices": 27,
          "material": 1,
          "mode": 4
        }
      ]
    },
    {
      "name": "Model_material2_0",
      "primitives": [
        {
          "attributes": {
            "NORMAL": 29,
            "POSITION": 28,
            "TEXCOORD_0": 30
          },
          "indices": 31,
          "material": 1,
          "mode": 4
        }
      ]
    },
    {
      "name": "Model_material2_0",
      "primitives": [
        {
          "attributes": {
            "NORMAL": 33,
            "POSITION": 32,
            "TEXCOORD_0": 34
          },
          "indices": 35,
          "material": 1,
          "mode": 4
        }
      ]
    },
    {
      "name": "Model_material2_0",
      "primitives": [
        {
          "attributes": {
            "NORMAL": 37,
            "POSITION": 36,
            "TEXCOORD_0": 38
          },
          "indices": 39,
          "material": 1,
          "mode": 4
        }
      ]
    },
    {
      "name": "Model_material2_0",
      "primitives": [
        {
          "attributes": {
            "NORMAL": 41,
            "POSITION": 40,
            "TEXCOORD_0": 42
          },
          "indices": 43,
          "material": 1,
          "mode": 4
        }
      ]
    },
    {
      "name": "Model_material2_0",
      "primitives": [
        {
          "attributes": {
            "NORMAL": 45,
            "POSITION": 44,
            "TEXCOORD_0": 46
          },
          "indices": 47,
          "material": 1,
          "mode": 4
        }
      ]
    },
    {
      "name": "Model_material0_0",
      "primitives": [
        {
          "attributes": {
            "NORMAL": 49,
            "POSITION": 48,
            "TEXCOORD_0": 50
          },
          "indices": 51,
          "material": 2,
          "mode": 4
        }
      ]
    },
    {
      "name": "Model_material0_0",
      "primitives": [
        {
          "attributes": {
            "NORMAL": 53,
            "POSITION": 52,
            "TEXCOORD_0": 54
          },
          "indices": 55,
          "material": 2,
          "mode": 4
        }
      ]
    },
    {
      "name": "Model_material0_0",
      "primitives": [
        {
          "attributes": {
            "NORMAL": 57,
            "POSITION": 56,
            "TEXCOORD_0": 58
          },
          "indices": 59,
          "material": 2,
          "mode": 4
        }
      ]
    },
    {
      "name": "Model_material0_0",
      "primitives": [
        {
          "attributes": {
            "NORMAL": 61,
            "POSITION": 60,
            "TEXCOORD_0": 62
          },
          "indices": 63,
          "material": 2,
          "mode": 4
        }
      ]
    },
    {
      "name": "Model_material0_0",
      "primitives": [
        {
          "attributes": {
            "NORMAL": 65,
            "POSITION": 64,
            "TEXCOORD_0": 66
          },
          "indices": 67,
          "material": 2,
          "mode": 4
        }
      ]
    },
    {
      "name": "Model_material0_0",
      "primitives": [
        {
          "attributes": {
            "NORMAL": 69,
            "POSITION": 68,
            "TEXCOORD_0": 70
          },
          "indices": 71,
          "material": 2,
          "mode": 4
        }
      ]
    }
  ],
  "nodes": [
    {
      "children": [
        1
      ],
      "matrix": [
        1.0,
        0.0,
        0.0,
        0.0,
        0.0,
        2.220446049250313e-16,
        -1.0,
        0.0,
        0.0,
        1.0,
        2.220446049250313e-16,
        0.0,
        0.0,
        0.0,
        0.0,
        1.0
      ],
      "name": "Sketchfab_model"
    },
    {
      "children": [
        2
      ],
      "matrix": [
        0.009999999776482582,
        0.0,
        0.0,
        0.0,
        0.0,
        0.0,
        0.009999999776482582,
        0.0,
        0.0,
        -0.009999999776482582,
        0.0,
        0.0,
        0.0,
        0.0,
        0.0,
        1.0
      ],
      "name": "Odawara Castle.fbx"
    },
    {
      "children": [
        3
      ],
      "name": "RootNode"
    },
    {
      "children": [
        4,
        5,
        6,
        7,
        8,
        9,
        10,
        11,
        12,
        13,
        14,
        15,
        16,
        17,
        18,
        19,
        20,
        21
      ],
      "matrix": [
        99.59632950021617,
        0.48795895451597593,
        8.962870418737381,
        0.0,
        2.9451979959215198,
        92.54763838048306,
        -37.76584320627978,
        0.0,
        -8.479206717317865,
        37.877367918211114,
        92.15967950874513,
        0.0,
        0.0,
        0.0,
        0.0,
        1.0
      ],
      "name": "Model"
    },
    {
      "mesh": 0,
      "name": "Model_material1_0"
    },
    {
      "mesh": 1,
      "name": "Model_material1_0"
    },
    {
      "mesh": 2,
      "name": "Model_material1_0"
    },
    {
      "mesh": 3,
      "name": "Model_material1_0"
    },
    {
      "mesh": 4,
      "name": "Model_material1_0"
    },
    {
      "mesh": 5,
      "name": "Model_material1_0"
    },
    {
      "mesh": 6,
      "name": "Model_material2_0"
    },
    {
      "mesh": 7,
      "name": "Model_material2_0"
    },
    {
      "mesh": 8,
      "name": "Model_material2_0"
    },
    {
      "mesh": 9,
      "name": "Model_material2_0"
    },
    {
      "mesh": 10,
      "name": "Model_material2_0"
    },
    {
      "mesh": 11,
      "name": "Model_material2_0"
    },
    {
      "mesh": 12,
      "name": "Model_material0_0"
    },
    {
      "mesh": 13,
      "name": "Model_material0_0"
    },
    {
      "mesh": 14,
      "name": "Model_material0_0"
    },
    {
      "mesh": 15,
      "name": "Model_material0_0"
    },
    {
      "mesh": 16,
      "name": "Model_material0_0"
    },
    {
      "mesh": 17,
      "name": "Model_material0_0"
    }
  ],
  "samplers": [
    {
      "magFilter": 9729,
      "minFilter": 9987,
      "wrapS": 10497,
      "wrapT": 10497
    }
  ],
  "scene": 0,
  "scenes": [
    {
      "name": "Sketchfab_Scene",
      "nodes": [
        0
      ]
    }
  ],
  "textures": [
    {
      "sampler": 0,
      "source": 0
    },
    {
      "sampler": 0,
      "source": 1
    },
    {
      "sampler": 0,
      "source": 2
    }
  ]
}
